<svg width="43" height="35" viewBox="0 0 43 35" fill="none" xmlns="http://www.w3.org/2000/svg">
<path d="M0 10.633V28C0 29.8565 0.753213 31.637 2.09394 32.9497C3.43467 34.2625 5.25309 35 7.14916 35H35.7458C37.6419 35 39.4603 34.2625 40.801 32.9497C42.1417 31.637 42.895 29.8565 42.895 28V7C42.895 5.14348 42.1417 3.36301 40.801 2.05025C39.4603 0.737498 37.6419 0 35.7458 0H7.14916C5.25309 0 3.43467 0.737498 2.09394 2.05025C0.753213 3.36301 0 5.14348 0 7V10.633ZM7.14916 3.5H35.7458C36.6938 3.5 37.603 3.86875 38.2734 4.52513C38.9438 5.1815 39.3204 6.07174 39.3204 7V9.59L21.4475 19.012L3.57458 9.59V7C3.57458 6.07174 3.95119 5.1815 4.62155 4.52513C5.29191 3.86875 6.20112 3.5 7.14916 3.5ZM3.57458 13.566L20.6003 22.54C20.8607 22.6772 21.1518 22.7491 21.4475 22.7491C21.7432 22.7491 22.0343 22.6772 22.2947 22.54L39.3204 13.566V28C39.3204 28.9283 38.9438 29.8185 38.2734 30.4749C37.603 31.1313 36.6938 31.5 35.7458 31.5H7.14916C6.20112 31.5 5.29191 31.1313 4.62155 30.4749C3.95119 29.8185 3.57458 28.9283 3.57458 28V13.566Z" fill="black"/>
</svg>
