<svg width="54" height="54" viewBox="0 0 54 54" fill="none" xmlns="http://www.w3.org/2000/svg">
<path d="M27 38.25L29.25 33.75V22.1805C33.1222 21.1747 36 17.6805 36 13.5C36 8.5365 31.9635 4.5 27 4.5C22.0365 4.5 18 8.5365 18 13.5C18 17.6805 20.8777 21.1747 24.75 22.1805V33.75L27 38.25ZM22.5 13.5C22.5 11.0182 24.5182 9 27 9C29.4817 9 31.5 11.0182 31.5 13.5C31.5 15.9818 29.4817 18 27 18C24.5182 18 22.5 15.9818 22.5 13.5Z" fill="black"/>
<path d="M36.6008 23.766L35.4015 28.104C41.2313 29.715 45 32.8133 45 35.9993C45 40.2563 37.6088 44.9993 27 44.9993C16.3913 44.9993 9 40.2563 9 35.9993C9 32.8133 12.7688 29.715 18.6008 28.1018L17.4015 23.7638C9.44325 25.9643 4.5 30.651 4.5 35.9993C4.5 43.5683 14.3843 49.4993 27 49.4993C39.6158 49.4993 49.5 43.5683 49.5 35.9993C49.5 30.651 44.5568 25.9643 36.6008 23.766Z" fill="black"/>
</svg>
