<svg width="190" height="84" viewBox="0 0 190 84" fill="none" xmlns="http://www.w3.org/2000/svg">
<g filter="url(#filter0_d_23_73)">
<path d="M16 31C16 22.7157 22.7157 16 31 16H95C103.284 16 110 22.7157 110 31V45C110 53.2843 103.284 60 95 60H31C22.7157 60 16 53.2843 16 45V31Z" fill="#0A66C2"/>
<path d="M27.5 30.5H30.4539V45.27H27.5V30.5Z" fill="#EEEBFF"/>
<path d="M39.4682 30.5L41.4978 38.29C41.5486 38.5033 41.5931 38.6867 41.6312 38.84C41.6693 38.9933 41.6947 39.0933 41.7074 39.14C41.7201 39.18 41.7265 39.2033 41.7265 39.21C41.8916 40.27 41.9901 40.9667 42.0219 41.3C42.2061 39.8267 42.3871 38.8167 42.565 38.27L44.7947 30.5H47.196L49.3971 38.29C49.5814 38.8233 49.7656 39.8267 49.9498 41.3C50.026 40.5267 50.08 40.04 50.1118 39.84C50.1499 39.64 50.2706 39.1167 50.4739 38.27L52.5035 30.5H55.486L51.3887 45.27H48.9112L46.4909 37.06C46.3003 36.4133 46.1732 35.9133 46.1097 35.56C46.0525 35.2 46.0112 34.67 45.9858 33.97C45.9541 34.71 45.9064 35.2867 45.8429 35.7C45.7794 36.1067 45.6587 36.56 45.4808 37.06L43.0605 45.27H40.583L36.5047 30.5H39.4682Z" fill="#EEEBFF"/>
<path d="M61.5368 35.6H64.2811V45.27H61.5368V43.73C61.2764 44.3033 60.8761 44.7433 60.3362 45.05C59.8026 45.35 59.1673 45.5 58.4304 45.5C57.1536 45.5 56.1054 45.0333 55.2859 44.1C54.4665 43.1667 54.0567 41.9733 54.0567 40.52C54.0567 39.0467 54.4792 37.8133 55.324 36.82C56.1689 35.82 57.2107 35.32 58.4495 35.32C59.1165 35.32 59.7263 35.4733 60.279 35.78C60.838 36.08 61.2573 36.4933 61.5368 37.02V35.6ZM59.2308 37.79C58.5702 37.79 58.0175 38.0433 57.5728 38.55C57.1282 39.05 56.9058 39.6733 56.9058 40.42C56.9058 41.1867 57.1186 41.81 57.5443 42.29C57.9762 42.7633 58.5384 43 59.2308 43C59.9042 43 60.4664 42.7533 60.9174 42.26C61.3685 41.7667 61.594 41.1467 61.594 40.4C61.594 39.6667 61.3685 39.05 60.9174 38.55C60.4664 38.0433 59.9042 37.79 59.2308 37.79Z" fill="#EEEBFF"/>
<path d="M66.3012 35.6H69.0931L69.0741 37.1C69.722 35.9533 70.7003 35.38 72.0089 35.38C73.0317 35.38 73.8258 35.69 74.3911 36.31C74.9565 36.93 75.2392 37.8767 75.2392 39.15V45.27H72.4759V40.03C72.4759 38.6233 71.9359 37.92 70.856 37.92C70.2842 37.92 69.8491 38.1 69.5505 38.46C69.2583 38.82 69.1122 39.35 69.1122 40.05V45.27H66.3012V35.6Z" fill="#EEEBFF"/>
<path d="M76.3445 35.6H77.4022V32.35H80.1942V35.6H81.9284V38H80.1942V45.27H77.4022V38.02H76.3445V35.6Z" fill="#EEEBFF"/>
<path d="M91.886 30.5H95.1067L100.5 45.27H97.3555L96.3359 42.38H90.6568L89.6467 45.27H86.5022L91.886 30.5ZM91.6001 39.99H95.4021L94.0776 35.91C94.0204 35.7233 93.9506 35.5133 93.868 35.28C93.7854 35.04 93.7314 34.8833 93.706 34.81C93.6869 34.73 93.6583 34.63 93.6202 34.51C93.5885 34.39 93.5694 34.28 93.563 34.18C93.5567 34.08 93.5472 33.97 93.5345 33.85C93.5281 33.7233 93.5186 33.5433 93.5059 33.31C93.4614 33.9233 93.4201 34.3067 93.382 34.46C93.3502 34.6067 93.1978 35.09 92.9246 35.91L91.6001 39.99Z" fill="#EEEBFF"/>
<path d="M123.502 28.5357V51H120.624V28.5357H117V26H127.16V28.5357H123.502Z" fill="black" fill-opacity="0.6"/>
<path d="M135.213 28.5357V36.75H130.302V39.25H135.213V48.4643H130.065V51H138.091V26H130.065V28.5357H135.213Z" fill="black" fill-opacity="0.6"/>
<path d="M151.959 48.2857C151.959 49.3333 151.755 50.0476 151.349 50.4286C150.943 50.8095 150.209 51 149.148 51H144.406C143.232 51 142.442 50.8214 142.036 50.4643C141.675 50.131 141.494 49.4524 141.494 48.4286V28.7857C141.494 27.6905 141.675 26.9524 142.036 26.5714C142.42 26.1905 143.165 26 144.271 26H148.978C149.994 26 150.705 26.1786 151.112 26.5357C151.496 26.8929 151.688 27.5476 151.688 28.5V33.5H148.843V28.5357H144.373V48.4643H149.08V41.8929H151.959V48.2857Z" fill="black" fill-opacity="0.6"/>
<path d="M163.121 51V39.25H158.414V51H155.535V26H158.414V36.75H163.121V26H166V51H163.121Z" fill="black" fill-opacity="0.6"/>
</g>
<defs>
<filter id="filter0_d_23_73" x="0" y="0" width="190" height="84" filterUnits="userSpaceOnUse" color-interpolation-filters="sRGB">
<feFlood flood-opacity="0" result="BackgroundImageFix"/>
<feColorMatrix in="SourceAlpha" type="matrix" values="0 0 0 0 0 0 0 0 0 0 0 0 0 0 0 0 0 0 127 0" result="hardAlpha"/>
<feOffset dx="4" dy="4"/>
<feGaussianBlur stdDeviation="10"/>
<feComposite in2="hardAlpha" operator="out"/>
<feColorMatrix type="matrix" values="0 0 0 0 0 0 0 0 0 0 0 0 0 0 0 0 0 0 0.5 0"/>
<feBlend mode="normal" in2="BackgroundImageFix" result="effect1_dropShadow_23_73"/>
<feBlend mode="normal" in="SourceGraphic" in2="effect1_dropShadow_23_73" result="shape"/>
</filter>
</defs>
</svg>
